<svg width="24" height="24" viewBox="0 0 24 24" fill="#fff" xmlns="http://www.w3.org/2000/svg">
<g clip-path="url(#clip0_3261_13042)">
<path d="M15.39 20.9301L14.12 20.5901C13.34 20.3701 12.81 19.6701 12.81 18.8501C12.81 18.0301 13.34 17.3201 14.16 17.0901L15.39 16.7701C16.01 16.6001 16.46 16.1401 16.63 15.5401L16.96 14.3201L17.03 14.0901C17.3 13.4001 17.94 12.9201 18.69 12.9201C19.46 12.9201 20.12 13.3601 20.38 14.0501L20.79 15.5101C20.86 15.7501 20.97 15.9501 21.12 16.1301C21.46 15.3601 21.72 14.5601 21.87 13.6901C22.99 6.85011 17.16 1.02011 10.32 2.14011C6.16003 2.82011 2.81003 6.17011 2.14003 10.3201C1.79003 12.4801 2.13003 14.5301 2.97003 16.3001C3.11003 16.6001 3.18003 17.1101 3.10003 17.4401L2.42003 20.2801C2.19003 21.2301 2.77003 21.8101 3.72003 21.5801C4.71003 21.3501 5.88003 21.0601 6.57003 20.9001C6.90003 20.8201 7.40003 20.8901 7.70003 21.0301C9.55003 21.9101 11.71 22.2401 13.96 21.8101C14.65 21.6801 15.3 21.4601 15.93 21.2001C15.77 21.0801 15.59 20.9901 15.39 20.9301ZM13.39 6.31011C13.54 5.93011 13.98 5.74011 14.36 5.88011C16.11 6.56011 17.48 7.95011 18.14 9.70011C18.29 10.0901 18.09 10.5201 17.7 10.6601C17.62 10.7001 17.53 10.7101 17.44 10.7101C17.13 10.7101 16.85 10.5301 16.74 10.2301C16.23 8.88011 15.17 7.80011 13.82 7.28011C13.44 7.13011 13.25 6.70011 13.39 6.31011Z"/>
<path d="M23.21 18.8801C23.21 18.9701 23.16 19.1701 22.92 19.2501L21.65 19.6001C20.56 19.9001 19.74 20.7201 19.44 21.8101L19.1 23.0501C19.02 23.3301 18.8 23.3601 18.7 23.3601C18.6 23.3601 18.38 23.3301 18.3 23.0501L17.96 21.8001C17.66 20.7201 16.83 19.9001 15.75 19.6001L14.5 19.2601C14.23 19.1801 14.2 18.9501 14.2 18.8601C14.2 18.7601 14.23 18.5301 14.5 18.4501L15.76 18.1201C16.84 17.8101 17.66 16.9901 17.96 15.9101L18.32 14.6001C18.41 14.3801 18.61 14.3501 18.7 14.3501C18.79 14.3501 19 14.3801 19.08 14.5801L19.44 15.9001C19.74 16.9801 20.57 17.8001 21.65 18.1101L22.94 18.4601C23.2 18.5601 23.21 18.8001 23.21 18.8801Z"/>
</g>
<defs>
<clipPath id="clip0_3261_13042">
<rect width="24" height="24" fill="white"/>
</clipPath>
</defs>
</svg>