<svg width="24" height="24" viewBox="0 0 24 24" fill="none" xmlns="http://www.w3.org/2000/svg">
<g clip-path="url(#clip0_4418_3318)">
<path d="M12 2V9L14 7" stroke="#fff" stroke-width="1.5" stroke-linecap="round" stroke-linejoin="round"/>
<path d="M12 9L10 7" stroke="#fff" stroke-width="1.5" stroke-linecap="round" stroke-linejoin="round"/>
<path d="M1.97998 13H6.38998C6.76998 13 7.10998 13.21 7.27998 13.55L8.44998 15.89C8.78998 16.57 9.47998 17 10.24 17H13.77C14.53 17 15.22 16.57 15.56 15.89L16.73 13.55C16.9 13.21 17.25 13 17.62 13H21.98" stroke="#fff" stroke-width="1.5" stroke-linecap="round" stroke-linejoin="round"/>
<path d="M2.68994 19.0009C3.64994 21.1009 5.64994 22.0009 8.99994 22.0009H14.9999C19.9999 22.0009 21.9999 20.0009 21.9999 15.0009V11.0009C21.9999 6.73086 20.5399 4.65086 16.9999 4.13086" stroke="#fff" stroke-width="1.5" stroke-linecap="round" stroke-linejoin="round"/>
<path d="M7 4.13086C3.46 4.65086 2 6.73086 2 11.0009V15.0009" stroke="#fff" stroke-width="1.5" stroke-linecap="round" stroke-linejoin="round"/>
</g>
<defs>
<clipPath id="clip0_4418_3318">
<rect width="24" height="24" fill="none"/>
</clipPath>
</defs>
</svg>